Coordinates
version=1
nRows=29
nColumns=24
inDegrees=yes

Units are S.I. units (second, meters, Newtons, ...)
Angles are in degrees.

endheader
time	pelvis_tilt	pelvis_list	pelvis_rotation	pelvis_tx	pelvis_ty	pelvis_tz	hip_flexion_r	hip_adduction_r	hip_rotation_r	knee_angle_r	ankle_angle_r	subtalar_angle_r	mtp_angle_r	hip_flexion_l	hip_adduction_l	hip_rotation_l	knee_angle_l	ankle_angle_l	subtalar_angle_l	mtp_angle_l	lumbar_extension	lumbar_bending	lumbar_rotation
      5.74000000	      8.72007003	      1.40440168	      3.31770239	      2.53121670	      0.88437904	     -0.17044772	    -32.49988870	      2.99364636	     -8.73185978	    -13.22633107	     15.81112051	     11.28857566	      0.00000000	     16.97369334	      6.23800877	      4.26905178	     -9.98911973	      1.29912931	     -5.20736864	      0.00000000	    -29.37515841	      0.52024676	      0.60037131
      5.75000000	      8.63950078	      1.68841313	      3.02727921	      2.54944509	      0.88296104	     -0.17161574	    -31.42421458	      1.90780138	    -10.31946884	    -16.73591536	     13.75531180	     12.90784864	      0.00000000	     17.29923160	      6.74732964	      3.48633752	    -12.33756764	      1.38543679	     -5.42737712	      0.00000000	    -28.74597846	     -0.00873851	      0.77298174
      5.76000000	      8.75225700	      2.08643227	      2.64552867	      2.56730448	      0.88212751	     -0.17277122	    -30.23720045	      0.52876445	    -11.81005256	    -20.64847078	     11.14277977	     14.24928402	      0.00000000	     17.38919679	      7.33340942	      2.66744992	    -14.55759057	      1.87649568	     -5.88233616	      0.00000000	    -28.41454221	     -0.65751614	      0.86874351
      5.77000000	      9.01150299	      2.58191883	      2.25264029	      2.58460393	      0.88179292	     -0.17393262	    -28.90034197	     -1.04454137	    -13.01809125	    -24.89776096	      7.97293986	     15.01441038	      0.00000000	     17.39671133	      7.99533196	      1.82075392	    -16.83654162	      2.88547858	     -6.37478292	      0.00000000	    -28.35393714	     -1.38323299	      0.78103532
      5.78000000	      9.39021250	      3.02630581	      1.89597066	      2.60116466	      0.88188146	     -0.17510577	    -27.36756788	     -2.62976318	    -13.89525182	    -29.46127594	      4.42525287	     15.45740235	      0.00000000	     17.42248214	      8.54976921	      0.87174635	    -19.33876538	      4.79952046	     -6.14809869	      0.00000000	    -28.54387077	     -1.99525133	      0.63897511
      5.79000000	      9.89392992	      3.48658982	      1.61871829	      2.61701676	      0.88237810	     -0.17622531	    -25.72848814	     -4.15630970	    -14.32036917	    -34.17565972	      0.64395544	     15.12923145	      0.00000000	     17.35046673	      9.07909144	     -0.00272845	    -21.90842601	      7.10855436	     -5.56540839	      0.00000000	    -28.98602150	     -2.57917726	      0.27962635
      5.80000000	     10.43537150	      3.91028999	      1.41102658	      2.63220011	      0.88317718	     -0.17733291	    -23.90921375	     -5.59182606	    -14.44157286	    -39.00631788	     -2.94939077	     14.51277107	      0.00000000	     17.15625099	      9.54158802	     -0.71236276	    -24.35810888	      9.55322119	     -4.69133128	      0.00000000	    -29.55710925	     -3.06592621	     -0.18249065
      5.81000000	     10.89953338	      4.28352917	      1.22903839	      2.64683731	      0.88418552	     -0.17838558	    -21.83158198	     -6.89351694	    -14.22069349	    -43.85152455	     -6.07886610	     13.57527696	      0.00000000	     16.82612172	      9.93518680	     -1.23188812	    -26.44696725	     11.91483197	     -3.71896880	      0.00000000	    -30.08054403	     -3.46486113	     -0.64838041
      5.82000000	     11.23779645	      4.63048264	      1.00083975	      2.66105428	      0.88543394	     -0.17931183	    -19.48371737	     -8.09196376	    -13.67392812	    -48.61755194	     -8.48324951	     12.57568814	      0.00000000	     16.30966603	     10.26589087	     -1.71354547	    -27.97107119	     14.01519400	     -2.70652607	      0.00000000	    -30.46750974	     -3.83636969	     -1.09706686
      5.83000000	     11.40424275	      4.94313690	      0.66127921	      2.67496333	      0.88694437	     -0.18005817	    -16.84378251	     -9.16795228	    -12.77967486	    -53.20752828	    -10.03205692	     11.57313895	      0.00000000	     15.60035689	     10.53558495	     -2.19853562	    -28.80870586	     15.75927384	     -1.84642995	      0.00000000	    -30.63221431	     -4.20274758	     -1.43344382
      5.84000000	     11.42060391	      5.20951344	      0.18432844	      2.68864438	      0.88877887	     -0.18060298	    -13.96305497	    -10.09138325	    -11.56972924	    -57.53725988	    -10.69227783	     10.72261575	      0.00000000	     14.68858870	     10.73768032	     -2.75108978	    -28.96745286	     17.12784584	     -1.18471091	      0.00000000	    -30.57907780	     -4.55847604	     -1.66097166
      5.85000000	     11.29056868	      5.38351533	     -0.40207513	      2.70218410	      0.89095696	     -0.18098422	    -10.87680992	    -10.77045983	    -10.09384523	    -61.53004045	    -10.54570649	     10.08681694	      0.00000000	     13.60028190	     10.86898637	     -3.24613252	    -28.50991881	     18.21473151	     -0.70879354	      0.00000000	    -30.29268790	     -4.84741506	     -1.70242277
      5.86000000	     11.10184022	      5.44092266	     -1.05345854	      2.71556332	      0.89353570	     -0.18124634	     -7.69490281	    -11.15799279	     -8.45673340	    -65.15889236	     -9.76773509	      9.72361116	      0.00000000	     12.33690818	     10.92078542	     -3.67180722	    -27.59999767	     18.96599687	     -0.54631988	      0.00000000	    -29.89366938	     -5.01374196	     -1.66887262
      5.87000000	     10.86171987	      5.35098540	     -1.65522098	      2.72881891	      0.89648089	     -0.18151208	     -4.47477640	    -11.20080044	     -6.82737859	    -68.38976751	     -8.55350601	      9.58601141	      0.00000000	     10.94991193	     10.90021154	     -3.83393976	    -26.37185430	     19.46961748	     -0.62756656	      0.00000000	    -29.39301426	     -4.98714655	     -1.56067438
      5.88000000	     10.59930771	      5.12482347	     -2.11594140	      2.74191551	      0.89974099	     -0.18189010	     -1.29973802	    -10.92850166	     -5.35865686	    -71.20338400	     -7.14015613	      9.63501750	      0.00000000	      9.48427909	     10.81733909	     -3.67667581	    -24.96609689	     19.71455200	     -0.97095389	      0.00000000	    -28.86001740	     -4.73484964	     -1.51037857
      5.89000000	     10.31826606	      4.80189951	     -2.34645569	      2.75485225	      0.90322914	     -0.18244072	      1.74297803	    -10.41829722	     -4.19334705	    -73.55866834	     -5.67119974	      9.74159472	      0.00000000	      7.97481027	     10.70067483	     -3.12596129	    -23.45866097	     19.69896690	     -1.56797759	      0.00000000	    -28.32335864	     -4.29017367	     -1.59727538
      5.90000000	     10.05388670	      4.41871758	     -2.32050438	      2.76760049	      0.90689028	     -0.18318145	      4.56103282	     -9.76190609	     -3.38061360	    -75.42972640	     -4.26770793	      9.79191539	      0.00000000	      6.40736521	     10.55839320	     -2.19471127	    -21.88407345	     19.40369296	     -2.43085418	      0.00000000	    -27.84522589	     -3.69754592	     -1.88433751
      5.91000000	      9.79135165	      4.02458861	     -2.05783534	      2.78015886	      0.91057978	     -0.18404742	      7.17140767	     -9.06030038	     -2.89796788	    -76.84822249	     -2.97225987	      9.74189505	      0.00000000	      4.82933083	     10.38688005	     -1.04334647	    -20.28518647	     18.96710436	     -3.37466614	      0.00000000	    -27.41870024	     -3.03534759	     -2.43704158
      5.92000000	      9.54746579	      3.60413015	     -1.58235864	      2.79252728	      0.91425584	     -0.18501948	      9.56829976	     -8.33176292	     -2.71452851	    -77.82956490	     -1.89141276	      9.46453888	      0.00000000	      3.21550382	     10.15513158	      0.33381612	    -18.64124379	     18.33706773	     -4.47212006	      0.00000000	    -27.06489572	     -2.30201349	     -3.19216740
      5.93000000	      9.26729720	      3.20182060	     -0.95622932	      2.80473737	      0.91774233	     -0.18600973	     11.86176015	     -7.65019741	     -2.74767123	    -78.44321259	     -1.02518923	      8.97172815	      0.00000000	      1.64871646	      9.87330741	      1.75380422	    -16.97657410	     17.61521872	     -5.51205970	      0.00000000	    -26.71575310	     -1.57804009	     -4.10685476
      5.94000000	      8.96275213	      2.81041453	     -0.26693563	      2.81679142	      0.92097982	     -0.18693788	     14.07941491	     -7.00972929	     -2.89325554	    -78.72703647	     -0.36298493	      8.29158492	      0.00000000	      0.12929753	      9.53781626	      3.15049453	    -15.30096838	     16.80970944	     -6.57845911	      0.00000000	    -26.38376288	     -0.88475717	     -5.11633754
      5.95000000	      8.65893730	      2.41937892	      0.43473144	      2.82872932	      0.92396000	     -0.18779248	     16.20427858	     -6.40959715	     -3.09920424	    -78.69669167	      0.19809250	      7.59656656	      0.00000000	     -1.37894827	      9.15497460	      4.54681468	    -13.59882283	     15.87283427	     -7.79536878	      0.00000000	    -26.09217177	     -0.21576417	     -6.15154250
      5.96000000	      8.30304770	      2.06099754	      1.08699758	      2.84057804	      0.92656324	     -0.18850487	     18.31560983	     -5.86955173	     -3.28805522	    -78.37831334	      0.61781214	      6.75121991	      0.00000000	     -2.80335803	      8.76961833	      5.87542810	    -11.89686827	     14.82856147	     -9.16945601	      0.00000000	    -25.77311466	      0.36983484	     -7.17809686
      5.97000000	      7.95594937	      1.71281499	      1.65869947	      2.85237366	      0.92886220	     -0.18908660	     20.33152445	     -5.36440844	     -3.44214078	    -77.75582675	      0.97333396	      5.88129426	      0.00000000	     -4.23712872	      8.37872550	      7.24423554	    -10.15952688	     13.57016063	    -10.90793417	      0.00000000	    -25.48916804	      0.90254105	     -8.13097140
      5.98000000	      7.64447501	      1.37303500	      2.14305739	      2.86414153	      0.93087216	     -0.18954968	     22.20671334	     -4.89273312	     -3.56480755	    -76.82145084	      1.30690376	      5.03075567	      0.00000000	     -5.72768723	      7.98463480	      8.73985049	     -8.36539679	     12.02031457	    -13.15072659	      0.00000000	    -25.26597432	      1.39251913	     -8.99368092
      5.99000000	      7.39215777	      1.03139045	      2.55134658	      2.87589605	      0.93260705	     -0.18991345	     23.89319941	     -4.44751437	     -3.68281064	    -75.56039114	      1.63919295	      4.22699027	      0.00000000	     -7.30180543	      7.56594965	     10.41389198	     -6.51869323	     10.11619320	    -15.96007305	      0.00000000	    -25.12381866	      1.86163781	     -9.76423183
      6.00000000	      7.19983848	      0.68069088	      2.90457550	      2.88763631	      0.93404608	     -0.19019778	     25.37221813	     -4.02892049	     -3.82849381	    -73.96566826	      1.97188995	      3.49924932	      0.00000000	     -8.93757515	      7.09918698	     12.20569898	     -4.65737352	      7.88784991	    -19.23555503	      0.00000000	    -25.06003443	      2.33158975	    -10.44583433
      6.01000000	      7.02798375	      0.33837118	      3.23444086	      2.89936927	      0.93512064	     -0.19043638	     26.67049886	     -3.66935590	     -4.02973038	    -72.03966550	      2.31891693	      2.86613824	      0.00000000	    -10.54115700	      6.59536646	     13.96202442	     -2.87282822	      5.54724775	    -22.65224426	      0.00000000	    -25.01670206	      2.79464647	    -11.07264250
      6.02000000	      6.91921399	     -0.00128836	      3.53407162	      2.91107595	      0.93592189	     -0.19058676	     27.72749499	     -3.34826144	     -4.28823797	    -69.76189403	      2.54202966	      2.28516625	      0.00000000	    -12.11259019	      6.05238043	     15.33792312	     -1.23241684	      3.28912180	    -25.67404432	      0.00000000	    -25.06242745	      3.24673726	    -11.62491714
